<svg width="800" height="800" viewBox="0 0 1024 1024" class="icon"
    xmlns="http://www.w3.org/2000/svg">
    <path
        d="M916.5 334.5v101.7c0 24.9-27.3 45.2-60.8 45.2h-2.4v-12.9h2.4c24 0 43.4-14.5 43.4-32.4V334.5c0-17.8-19.4-32.4-43.4-32.4H517.1c-.4-3.1-.7-5.7-1-7.8l2 .2-.1-2c7.7-.9 15-2 22-3.3h315.8c33.4.1 60.7 20.4 60.7 45.3"
        fill="#FF6EA9" />
    <path
        d="M899.1 334.5v101.7c0 17.8-19.4 32.4-43.4 32.4H604v12.8h237v358.3c0 16.9-13.7 30.6-30.6 30.6h-604c-16.9 0-30.6-13.7-30.6-30.6V481.4h332.6v-12.8l29.3-6.4c11 33.7 25.2 63.6 42.8 79.6l-8.1 71.5 121.9 162 96.7-82.5-120.4-146-81-13.3c-45.2-39.5-67-185.8-72.6-231.4h338.6c24.1 0 43.5 14.6 43.5 32.4"
        fill="#FFE843" />
    <path
        d="M853.3 481.4v358.3c0 23.6-19.2 42.8-42.8 42.8h-604c-23.6 0-42.8-19.2-42.8-42.8V481.4h12.2v358.3c0 16.9 13.7 30.6 30.6 30.6h604c16.9 0 30.6-13.7 30.6-30.6V481.4z"
        fill="#FF6EA9" />
    <path d="M841.1 469.6h12.2v11.9h-12.2z" fill="#FF6EA9" />
    <path d="M853.3 468.6v1h-12.2v11.8H604v-12.8z" fill="#FF6EA9" />
    <path
        d="m670.8 546.8 120.4 146-96.7 82.5-121.9-162 8.1-71.5c-17.6-16-31.8-45.8-42.8-79.6-19.7-59.8-29.7-131.7-33.2-160.1h12.5c5.6 45.6 27.4 191.9 72.6 231.4zm103.3 144.5L664.3 558.2l-71.9-11.9-7.1 63.6 111.1 147.7z"
        fill="#CE1B6D" />
    <path d="m664.3 558.2 109.8 133.1-77.7 66.3-111.1-147.7 7.1-63.5z" fill="#D66474" />
    <path
        d="M674.2 125c17.8 25.9 20.7 58.2 7.3 86.5-.7 2.1-23.5 57-141.6 77.7h-22.1l-.4-10.3c127.3-16.6 151.2-72.4 151.5-72.9 11.4-24.3 9.2-51.6-6-73.5-16-23.5-44.3-36.9-76.3-36.9-2.9 0-5.7.1-8.7.4-17.4 1.2-31.3 8.1-41.4 20.3-18.2 22-21.1 56.4-21.1 75.9 0-13-1.2-32-7-50.5 3.7-12.1 9.3-24.1 17.6-34.1 12.7-15.2 29.8-23.7 51-25.3 40.5-2.9 76.9 13.1 97.2 42.7"
        fill="#CE1B6D" />
    <path
        d="M662.9 132.7c15.2 21.9 17.4 49.1 6 73.5-.2.5-24.2 56.2-151.5 72.9l-1.7-42.7.2-29.1c0-.1-.6-6-.6-14.8v-.1c0-19.6 2.9-53.9 21.1-75.9 10.1-12.2 24.1-19.1 41.4-20.3 2.9-.2 5.7-.4 8.7-.4 32.2 0 60.4 13.4 76.4 36.9M517.8 289.3H540c-7 1.3-14.3 2.4-22 3.3z"
        fill="#FF6EA9" />
    <path
        d="m537.9 462.3-29.3 6.4H161.2c-24 0-43.4-14.5-43.4-32.4V334.5c0-17.8 19.4-32.4 43.4-32.4h343.4c3.6 28.5 13.6 100.4 33.3 160.2"
        fill="#FFE843" />
    <path
        d="m518 292.6.1 2-2-.2c0-.6-.1-1.1-.1-1.5.6-.1 1.4-.2 2-.3m-.2-3.3.1 3.3c-.6.1-1.3.2-2 .2-.2-1.6-.4-2.8-.4-3.5z"
        fill="#FF6EA9" />
    <path
        d="m517.5 279 .4 10.3h-2.2c-.1-.4-.1-.6-.1-.7l-6.7.7h-7.2l.1-10.3c.6.1 1.3.1 2.1.2l-1.7-43 .2-28.2c-.1-.6-.7-6.5-.7-15.4v-.6c0-12.7 1.2-31.5 6.8-50.1 5.7 18.5 7 37.5 7 50.5v.1c0 9.3-.6 15.5-.7 16.4l1.1 27.5-.4 42.9c.6-.2 1.4-.2 2-.3"
        fill="#CE1B6D" />
    <path d="m515.8 236.4 1.7 42.7c-.6.1-1.3.1-2.1.2z" fill="#FF6EA9" />
    <path d="M517.1 302.1h-12.5c-.4-3.2-.6-5.9-.9-7.8l5.5-.6h1l5.9.6c.3 2.1.6 4.8 1 7.8"
        fill="#CE1B6D" />
    <path d="M516 292.8c0 .4.1.9.1 1.5l-5.9-.6h-.5c2.2-.3 4.2-.5 6.3-.9" fill="#CE1B6D" />
    <path d="m516 207.3-.2 29.1-1.1-27.5c.1-.9.7-7.1.7-16.4 0 8.8.6 14.6.6 14.8" fill="#FF6EA9" />
    <path
        d="M516 292.8c-2.1.4-4.2.6-6.2.9-2.1-.2-4.2-.5-6.1-.9-.2-1.5-.4-2.4-.4-2.9l5.5-.6h6.8c0 .7.2 1.9.4 3.5m-.4-3.5h-6.8l6.7-.7c0 .1 0 .3.1.7"
        fill="#CE1B6D" />
    <path d="M503.7 292.8c2 .4 4 .6 6.1.9h-.5l-5.5.6c-.1-.5-.1-1-.1-1.5" fill="#CE1B6D" />
    <path
        d="m508.8 289.3-5.5.6c0 .5.1 1.5.4 2.9-.7 0-1.3-.1-2.1-.2v-3.3zm-.2 179.3v12.8H175.9v-12.8z"
        fill="#FF6EA9" />
    <path
        d="M504.6 302.1H161.3c-24 0-43.4 14.5-43.4 32.4v101.7c0 17.8 19.4 32.4 43.4 32.4H176v1h-12.2v11.9h-2.4c-33.5 0-60.8-20.3-60.8-45.2V334.5c0-24.9 27.3-45.2 60.8-45.2h318.3c7 1.3 14.3 2.4 22 3.3v2l2.2-.2c.1 1.9.4 4.5.7 7.7m-2.5-65.9 1.7 43c-.7-.1-1.5-.1-2.1-.2z"
        fill="#FF6EA9" />
    <path
        d="m503.8 294.3-2.2.2v-2c.7.1 1.3.2 2.1.2 0 .6 0 1.1.1 1.6m-1.5-86.3-.2 28.2-1.1-27.9c0-.5.6-6.6.6-15.8 0 9 .6 14.9.7 15.5"
        fill="#FF6EA9" />
    <path
        d="m501 208.4 1.1 27.9-.4 42.8c-127.3-16.7-153.5-72.5-153.8-73.3-11.2-23.8-8.9-51.1 6.1-73 16.1-23.5 44.3-36.9 76.4-36.9 2.8 0 5.7.1 8.7.4 17.2 1.2 31.2 8.1 41.3 20.3 18.1 21.6 21.1 55.6 21.1 75.5v.6c.1 9.1-.5 15.2-.5 15.7"
        fill="#FF6EA9" />
    <path
        d="m501.7 279-.1 10.3h-22c-118.3-20.8-143.1-75.5-144.1-78-13.2-28.1-10.5-60.4 7.3-86.3 20.3-29.6 56.7-45.5 97.3-42.5 21.1 1.6 38.3 10.1 50.9 25.3 8.3 10 13.8 21.9 17.5 34.1-5.6 18.6-6.8 37.4-6.8 50.1 0-19.9-3.1-53.9-21.1-75.5-10.1-12.2-24.1-19.1-41.3-20.3-2.9-.2-5.9-.4-8.7-.4-32.1 0-60.3 13.4-76.4 36.9-15 21.9-17.4 49.1-6.1 73 .1.8 26.4 56.6 153.6 73.3"
        fill="#CE1B6D" />
    <path d="M501.6 289.3v3.3c-7.7-.9-15-2-22-3.3zM163.7 469.6h12.2v11.9h-12.2z" fill="#FF6EA9" />
</svg>